<?xml version="1.0" encoding="utf-8"?>
<svg xmlns="http://www.w3.org/2000/svg" xmlns:xlink="http://www.w3.org/1999/xlink" width="100" height="100" viewBox="0 0 400 400">
<defs>
  <clipPath id="clip930">
    <rect x="0" y="0" width="400" height="400"/>
  </clipPath>
</defs>
<path clip-path="url(#clip930)" d="
M0 400 L400 400 L400 0 L0 0  Z
  " fill="#ffffff" fill-rule="evenodd" fill-opacity="1"/>
<defs>
  <clipPath id="clip931">
    <rect x="80" y="40" width="281" height="281"/>
  </clipPath>
</defs>
<path clip-path="url(#clip930)" d="
M23.685 376.315 L388.189 376.315 L388.189 11.811 L23.685 11.811  Z
  " fill="#ffffff" fill-rule="evenodd" fill-opacity="1"/>
<defs>
  <clipPath id="clip932">
    <rect x="23" y="11" width="366" height="366"/>
  </clipPath>
</defs>
<polyline clip-path="url(#clip932)" style="stroke:#000000; stroke-width:0.5; stroke-opacity:0.1; fill:none" points="
  60.1354,376.315 60.1354,11.811 
  "/>
<polyline clip-path="url(#clip932)" style="stroke:#000000; stroke-width:0.5; stroke-opacity:0.1; fill:none" points="
  96.5858,376.315 96.5858,11.811 
  "/>
<polyline clip-path="url(#clip932)" style="stroke:#000000; stroke-width:0.5; stroke-opacity:0.1; fill:none" points="
  133.036,376.315 133.036,11.811 
  "/>
<polyline clip-path="url(#clip932)" style="stroke:#000000; stroke-width:0.5; stroke-opacity:0.1; fill:none" points="
  169.487,376.315 169.487,11.811 
  "/>
<polyline clip-path="url(#clip932)" style="stroke:#000000; stroke-width:0.5; stroke-opacity:0.1; fill:none" points="
  205.937,376.315 205.937,11.811 
  "/>
<polyline clip-path="url(#clip932)" style="stroke:#000000; stroke-width:0.5; stroke-opacity:0.1; fill:none" points="
  242.387,376.315 242.387,11.811 
  "/>
<polyline clip-path="url(#clip932)" style="stroke:#000000; stroke-width:0.5; stroke-opacity:0.1; fill:none" points="
  278.838,376.315 278.838,11.811 
  "/>
<polyline clip-path="url(#clip932)" style="stroke:#000000; stroke-width:0.5; stroke-opacity:0.1; fill:none" points="
  315.288,376.315 315.288,11.811 
  "/>
<polyline clip-path="url(#clip932)" style="stroke:#000000; stroke-width:0.5; stroke-opacity:0.1; fill:none" points="
  351.739,376.315 351.739,11.811 
  "/>
<polyline clip-path="url(#clip930)" style="stroke:#000000; stroke-width:1; stroke-opacity:1; fill:none" points="
  23.685,376.315 388.189,376.315 
  "/>
<polyline clip-path="url(#clip930)" style="stroke:#000000; stroke-width:1; stroke-opacity:1; fill:none" points="
  60.1354,376.315 60.1354,371.941 
  "/>
<polyline clip-path="url(#clip930)" style="stroke:#000000; stroke-width:1; stroke-opacity:1; fill:none" points="
  96.5858,376.315 96.5858,371.941 
  "/>
<polyline clip-path="url(#clip930)" style="stroke:#000000; stroke-width:1; stroke-opacity:1; fill:none" points="
  133.036,376.315 133.036,371.941 
  "/>
<polyline clip-path="url(#clip930)" style="stroke:#000000; stroke-width:1; stroke-opacity:1; fill:none" points="
  169.487,376.315 169.487,371.941 
  "/>
<polyline clip-path="url(#clip930)" style="stroke:#000000; stroke-width:1; stroke-opacity:1; fill:none" points="
  205.937,376.315 205.937,371.941 
  "/>
<polyline clip-path="url(#clip930)" style="stroke:#000000; stroke-width:1; stroke-opacity:1; fill:none" points="
  242.387,376.315 242.387,371.941 
  "/>
<polyline clip-path="url(#clip930)" style="stroke:#000000; stroke-width:1; stroke-opacity:1; fill:none" points="
  278.838,376.315 278.838,371.941 
  "/>
<polyline clip-path="url(#clip930)" style="stroke:#000000; stroke-width:1; stroke-opacity:1; fill:none" points="
  315.288,376.315 315.288,371.941 
  "/>
<polyline clip-path="url(#clip930)" style="stroke:#000000; stroke-width:1; stroke-opacity:1; fill:none" points="
  351.739,376.315 351.739,371.941 
  "/>
<path clip-path="url(#clip930)" d="M 0 0 M57.9537 382.395 L56.3681 386.694 L59.5452 386.694 L57.9537 382.395 M57.294 381.243 L58.6192 381.243 L61.912 389.883 L60.6968 389.883 L59.9097 387.667 L56.0151 387.667 L55.2281 389.883 L53.9954 389.883 L57.294 381.243 Z" fill="#000000" fill-rule="evenodd" fill-opacity="1" /><path clip-path="url(#clip930)" d="M 0 0 M63.0289 380.878 L64.0937 380.878 L64.0937 389.883 L63.0289 389.883 L63.0289 380.878 Z" fill="#000000" fill-rule="evenodd" fill-opacity="1" /><path clip-path="url(#clip930)" d="M 0 0 M65.2106 380.878 L66.2754 380.878 L66.2754 389.883 L65.2106 389.883 L65.2106 380.878 Z" fill="#000000" fill-rule="evenodd" fill-opacity="1" /><path clip-path="url(#clip930)" d="M 0 0 M94.1813 388.899 L96.091 388.899 L96.091 382.308 L94.0135 382.724 L94.0135 381.66 L96.0795 381.243 L97.2484 381.243 L97.2484 388.899 L99.1582 388.899 L99.1582 389.883 L94.1813 389.883 L94.1813 388.899 Z" fill="#000000" fill-rule="evenodd" fill-opacity="1" /><path clip-path="url(#clip930)" d="M 0 0 M131.699 388.899 L135.779 388.899 L135.779 389.883 L130.293 389.883 L130.293 388.899 Q130.959 388.211 132.105 387.053 Q133.256 385.89 133.551 385.554 Q134.113 384.923 134.333 384.489 Q134.558 384.05 134.558 383.627 Q134.558 382.939 134.072 382.505 Q133.592 382.071 132.816 382.071 Q132.267 382.071 131.653 382.261 Q131.045 382.452 130.351 382.84 L130.351 381.66 Q131.057 381.376 131.67 381.231 Q132.284 381.087 132.793 381.087 Q134.136 381.087 134.934 381.758 Q135.733 382.429 135.733 383.552 Q135.733 384.084 135.53 384.565 Q135.334 385.039 134.807 385.687 Q134.662 385.855 133.887 386.66 Q133.111 387.458 131.699 388.899 Z" fill="#000000" fill-rule="evenodd" fill-opacity="1" /><path clip-path="url(#clip930)" d="M 0 0 M170.549 385.224 Q171.388 385.404 171.856 385.971 Q172.331 386.538 172.331 387.371 Q172.331 388.65 171.451 389.351 Q170.572 390.051 168.951 390.051 Q168.407 390.051 167.829 389.941 Q167.256 389.837 166.642 389.623 L166.642 388.494 Q167.128 388.778 167.707 388.922 Q168.286 389.067 168.917 389.067 Q170.016 389.067 170.589 388.633 Q171.168 388.199 171.168 387.371 Q171.168 386.608 170.63 386.179 Q170.097 385.745 169.142 385.745 L168.135 385.745 L168.135 384.785 L169.189 384.785 Q170.051 384.785 170.508 384.443 Q170.965 384.096 170.965 383.448 Q170.965 382.782 170.491 382.429 Q170.022 382.071 169.142 382.071 Q168.662 382.071 168.112 382.175 Q167.562 382.279 166.903 382.499 L166.903 381.457 Q167.568 381.272 168.147 381.179 Q168.731 381.087 169.246 381.087 Q170.577 381.087 171.353 381.694 Q172.128 382.296 172.128 383.326 Q172.128 384.044 171.718 384.542 Q171.307 385.033 170.549 385.224 Z" fill="#000000" fill-rule="evenodd" fill-opacity="1" /><path clip-path="url(#clip930)" d="M 0 0 M206.689 382.261 L203.738 386.874 L206.689 386.874 L206.689 382.261 M206.383 381.243 L207.853 381.243 L207.853 386.874 L209.085 386.874 L209.085 387.846 L207.853 387.846 L207.853 389.883 L206.689 389.883 L206.689 387.846 L202.789 387.846 L202.789 386.717 L206.383 381.243 Z" fill="#000000" fill-rule="evenodd" fill-opacity="1" /><path clip-path="url(#clip930)" d="M 0 0 M239.957 381.243 L244.546 381.243 L244.546 382.227 L241.027 382.227 L241.027 384.345 Q241.282 384.258 241.537 384.217 Q241.791 384.171 242.046 384.171 Q243.493 384.171 244.338 384.964 Q245.183 385.757 245.183 387.111 Q245.183 388.506 244.314 389.281 Q243.446 390.051 241.867 390.051 Q241.323 390.051 240.755 389.958 Q240.194 389.866 239.592 389.68 L239.592 388.506 Q240.113 388.789 240.669 388.928 Q241.224 389.067 241.843 389.067 Q242.845 389.067 243.429 388.54 Q244.014 388.014 244.014 387.111 Q244.014 386.208 243.429 385.682 Q242.845 385.155 241.843 385.155 Q241.375 385.155 240.906 385.259 Q240.443 385.363 239.957 385.583 L239.957 381.243 Z" fill="#000000" fill-rule="evenodd" fill-opacity="1" /><path clip-path="url(#clip930)" d="M 0 0 M278.939 385.097 Q278.152 385.097 277.689 385.635 Q277.232 386.173 277.232 387.111 Q277.232 388.043 277.689 388.587 Q278.152 389.125 278.939 389.125 Q279.726 389.125 280.183 388.587 Q280.646 388.043 280.646 387.111 Q280.646 386.173 280.183 385.635 Q279.726 385.097 278.939 385.097 M281.26 381.434 L281.26 382.499 Q280.82 382.29 280.368 382.18 Q279.923 382.071 279.483 382.071 Q278.326 382.071 277.712 382.852 Q277.105 383.633 277.018 385.213 Q277.359 384.709 277.874 384.443 Q278.389 384.171 279.009 384.171 Q280.311 384.171 281.063 384.964 Q281.821 385.751 281.821 387.111 Q281.821 388.442 281.034 389.246 Q280.247 390.051 278.939 390.051 Q277.44 390.051 276.647 388.905 Q275.855 387.753 275.855 385.572 Q275.855 383.523 276.827 382.308 Q277.799 381.087 279.437 381.087 Q279.877 381.087 280.322 381.174 Q280.774 381.26 281.26 381.434 Z" fill="#000000" fill-rule="evenodd" fill-opacity="1" /><path clip-path="url(#clip930)" d="M 0 0 M312.51 381.243 L318.066 381.243 L318.066 381.741 L314.929 389.883 L313.708 389.883 L316.66 382.227 L312.51 382.227 L312.51 381.243 Z" fill="#000000" fill-rule="evenodd" fill-opacity="1" /><path clip-path="url(#clip930)" d="M 0 0 M351.739 385.78 Q350.905 385.78 350.425 386.226 Q349.95 386.671 349.95 387.452 Q349.95 388.234 350.425 388.679 Q350.905 389.125 351.739 389.125 Q352.572 389.125 353.052 388.679 Q353.533 388.228 353.533 387.452 Q353.533 386.671 353.052 386.226 Q352.578 385.78 351.739 385.78 M350.57 385.282 Q349.817 385.097 349.395 384.582 Q348.978 384.067 348.978 383.326 Q348.978 382.29 349.713 381.689 Q350.454 381.087 351.739 381.087 Q353.029 381.087 353.764 381.689 Q354.499 382.29 354.499 383.326 Q354.499 384.067 354.077 384.582 Q353.66 385.097 352.913 385.282 Q353.758 385.479 354.227 386.052 Q354.702 386.625 354.702 387.452 Q354.702 388.708 353.932 389.379 Q353.168 390.051 351.739 390.051 Q350.309 390.051 349.54 389.379 Q348.776 388.708 348.776 387.452 Q348.776 386.625 349.25 386.052 Q349.725 385.479 350.57 385.282 M350.141 383.436 Q350.141 384.108 350.558 384.484 Q350.98 384.86 351.739 384.86 Q352.491 384.86 352.913 384.484 Q353.342 384.108 353.342 383.436 Q353.342 382.765 352.913 382.389 Q352.491 382.013 351.739 382.013 Q350.98 382.013 350.558 382.389 Q350.141 382.765 350.141 383.436 Z" fill="#000000" fill-rule="evenodd" fill-opacity="1" /><path clip-path="url(#clip930)" d="M 0 0 M143.012 397.651 L145.407 397.651 L148.439 405.735 L151.486 397.651 L153.881 397.651 L153.881 409.531 L152.314 409.531 L152.314 399.099 L149.25 407.247 L147.635 407.247 L144.572 399.099 L144.572 409.531 L143.012 409.531 L143.012 397.651 Z" fill="#000000" fill-rule="evenodd" fill-opacity="1" /><path clip-path="url(#clip930)" d="M 0 0 M158.871 401.645 Q157.693 401.645 157.009 402.568 Q156.324 403.484 156.324 405.083 Q156.324 406.682 157.001 407.605 Q157.685 408.52 158.871 408.52 Q160.04 408.52 160.725 407.597 Q161.409 406.674 161.409 405.083 Q161.409 403.499 160.725 402.576 Q160.04 401.645 158.871 401.645 M158.871 400.404 Q160.78 400.404 161.87 401.645 Q162.961 402.887 162.961 405.083 Q162.961 407.271 161.87 408.52 Q160.78 409.762 158.871 409.762 Q156.953 409.762 155.863 408.52 Q154.781 407.271 154.781 405.083 Q154.781 402.887 155.863 401.645 Q156.953 400.404 158.871 400.404 Z" fill="#000000" fill-rule="evenodd" fill-opacity="1" /><path clip-path="url(#clip930)" d="M 0 0 M171.435 402.33 Q171.984 401.343 172.748 400.874 Q173.512 400.404 174.546 400.404 Q175.939 400.404 176.695 401.383 Q177.45 402.354 177.45 404.152 L177.45 409.531 L175.978 409.531 L175.978 404.2 Q175.978 402.919 175.525 402.298 Q175.071 401.677 174.14 401.677 Q173.002 401.677 172.342 402.433 Q171.682 403.189 171.682 404.494 L171.682 409.531 L170.209 409.531 L170.209 404.2 Q170.209 402.911 169.756 402.298 Q169.302 401.677 168.355 401.677 Q167.234 401.677 166.573 402.441 Q165.913 403.197 165.913 404.494 L165.913 409.531 L164.441 409.531 L164.441 400.619 L165.913 400.619 L165.913 402.004 Q166.414 401.184 167.114 400.794 Q167.814 400.404 168.777 400.404 Q169.748 400.404 170.424 400.897 Q171.109 401.391 171.435 402.33 Z" fill="#000000" fill-rule="evenodd" fill-opacity="1" /><path clip-path="url(#clip930)" d="M 0 0 M186.609 404.709 L186.609 405.425 L179.877 405.425 Q179.973 406.937 180.785 407.733 Q181.604 408.52 183.06 408.52 Q183.904 408.52 184.691 408.314 Q185.487 408.107 186.267 407.693 L186.267 409.077 Q185.479 409.412 184.652 409.587 Q183.824 409.762 182.973 409.762 Q180.84 409.762 179.591 408.52 Q178.35 407.279 178.35 405.162 Q178.35 402.974 179.527 401.693 Q180.713 400.404 182.718 400.404 Q184.516 400.404 185.559 401.566 Q186.609 402.72 186.609 404.709 M185.145 404.279 Q185.129 403.078 184.469 402.362 Q183.816 401.645 182.734 401.645 Q181.509 401.645 180.769 402.338 Q180.037 403.03 179.925 404.287 L185.145 404.279 Z" fill="#000000" fill-rule="evenodd" fill-opacity="1" /><path clip-path="url(#clip930)" d="M 0 0 M195.553 404.152 L195.553 409.531 L194.089 409.531 L194.089 404.2 Q194.089 402.934 193.595 402.306 Q193.102 401.677 192.115 401.677 Q190.93 401.677 190.246 402.433 Q189.561 403.189 189.561 404.494 L189.561 409.531 L188.089 409.531 L188.089 400.619 L189.561 400.619 L189.561 402.004 Q190.086 401.2 190.795 400.802 Q191.511 400.404 192.442 400.404 Q193.977 400.404 194.765 401.359 Q195.553 402.306 195.553 404.152 Z" fill="#000000" fill-rule="evenodd" fill-opacity="1" /><path clip-path="url(#clip930)" d="M 0 0 M198.537 398.089 L198.537 400.619 L201.553 400.619 L201.553 401.757 L198.537 401.757 L198.537 406.595 Q198.537 407.685 198.831 407.995 Q199.134 408.306 200.049 408.306 L201.553 408.306 L201.553 409.531 L200.049 409.531 Q198.354 409.531 197.709 408.902 Q197.065 408.266 197.065 406.595 L197.065 401.757 L195.991 401.757 L195.991 400.619 L197.065 400.619 L197.065 398.089 L198.537 398.089 Z" fill="#000000" fill-rule="evenodd" fill-opacity="1" /><path clip-path="url(#clip930)" d="M 0 0 M202.937 406.014 L202.937 400.619 L204.401 400.619 L204.401 405.958 Q204.401 407.223 204.895 407.86 Q205.388 408.489 206.375 408.489 Q207.56 408.489 208.245 407.733 Q208.937 406.977 208.937 405.672 L208.937 400.619 L210.401 400.619 L210.401 409.531 L208.937 409.531 L208.937 408.162 Q208.404 408.974 207.696 409.372 Q206.995 409.762 206.064 409.762 Q204.529 409.762 203.733 408.807 Q202.937 407.852 202.937 406.014 M206.621 400.404 L206.621 400.404 Z" fill="#000000" fill-rule="evenodd" fill-opacity="1" /><path clip-path="url(#clip930)" d="M 0 0 M218.875 402.33 Q219.424 401.343 220.188 400.874 Q220.952 400.404 221.987 400.404 Q223.379 400.404 224.135 401.383 Q224.891 402.354 224.891 404.152 L224.891 409.531 L223.419 409.531 L223.419 404.2 Q223.419 402.919 222.965 402.298 Q222.512 401.677 221.581 401.677 Q220.443 401.677 219.782 402.433 Q219.122 403.189 219.122 404.494 L219.122 409.531 L217.65 409.531 L217.65 404.2 Q217.65 402.911 217.196 402.298 Q216.743 401.677 215.796 401.677 Q214.674 401.677 214.013 402.441 Q213.353 403.197 213.353 404.494 L213.353 409.531 L211.881 409.531 L211.881 400.619 L213.353 400.619 L213.353 402.004 Q213.854 401.184 214.555 400.794 Q215.255 400.404 216.218 400.404 Q217.188 400.404 217.865 400.897 Q218.549 401.391 218.875 402.33 Z" fill="#000000" fill-rule="evenodd" fill-opacity="1" /><path clip-path="url(#clip930)" d="M 0 0 M231.607 400.619 L233.071 400.619 L233.071 409.531 L231.607 409.531 L231.607 400.619 M231.607 397.15 L233.071 397.15 L233.071 399.004 L231.607 399.004 L231.607 397.15 Z" fill="#000000" fill-rule="evenodd" fill-opacity="1" /><path clip-path="url(#clip930)" d="M 0 0 M242.015 404.152 L242.015 409.531 L240.551 409.531 L240.551 404.2 Q240.551 402.934 240.057 402.306 Q239.564 401.677 238.577 401.677 Q237.392 401.677 236.707 402.433 Q236.023 403.189 236.023 404.494 L236.023 409.531 L234.551 409.531 L234.551 400.619 L236.023 400.619 L236.023 402.004 Q236.548 401.2 237.256 400.802 Q237.972 400.404 238.903 400.404 Q240.439 400.404 241.227 401.359 Q242.015 402.306 242.015 404.152 Z" fill="#000000" fill-rule="evenodd" fill-opacity="1" /><path clip-path="url(#clip930)" d="M 0 0 M249.415 401.972 L249.415 397.15 L250.879 397.15 L250.879 409.531 L249.415 409.531 L249.415 408.194 Q248.953 408.99 248.245 409.38 Q247.545 409.762 246.558 409.762 Q244.943 409.762 243.924 408.473 Q242.914 407.184 242.914 405.083 Q242.914 402.982 243.924 401.693 Q244.943 400.404 246.558 400.404 Q247.545 400.404 248.245 400.794 Q248.953 401.176 249.415 401.972 M244.426 405.083 Q244.426 406.698 245.086 407.621 Q245.755 408.536 246.916 408.536 Q248.078 408.536 248.746 407.621 Q249.415 406.698 249.415 405.083 Q249.415 403.468 248.746 402.553 Q248.078 401.63 246.916 401.63 Q245.755 401.63 245.086 402.553 Q244.426 403.468 244.426 405.083 Z" fill="#000000" fill-rule="evenodd" fill-opacity="1" /><path clip-path="url(#clip930)" d="M 0 0 M260.038 404.709 L260.038 405.425 L253.306 405.425 Q253.401 406.937 254.213 407.733 Q255.033 408.52 256.489 408.52 Q257.332 408.52 258.12 408.314 Q258.916 408.107 259.695 407.693 L259.695 409.077 Q258.908 409.412 258.08 409.587 Q257.253 409.762 256.401 409.762 Q254.269 409.762 253.019 408.52 Q251.778 407.279 251.778 405.162 Q251.778 402.974 252.956 401.693 Q254.141 400.404 256.147 400.404 Q257.945 400.404 258.987 401.566 Q260.038 402.72 260.038 404.709 M258.573 404.279 Q258.558 403.078 257.897 402.362 Q257.245 401.645 256.162 401.645 Q254.937 401.645 254.197 402.338 Q253.465 403.03 253.354 404.287 L258.573 404.279 Z" fill="#000000" fill-rule="evenodd" fill-opacity="1" /><path clip-path="url(#clip930)" d="M 0 0 M268.695 400.619 L265.472 404.956 L268.862 409.531 L267.135 409.531 L264.541 406.03 L261.947 409.531 L260.221 409.531 L263.682 404.868 L260.515 400.619 L262.242 400.619 L264.605 403.794 L266.968 400.619 L268.695 400.619 Z" fill="#000000" fill-rule="evenodd" fill-opacity="1" /><polyline clip-path="url(#clip932)" style="stroke:#000000; stroke-width:0.5; stroke-opacity:0.1; fill:none" points="
  23.685,372.017 388.189,372.017 
  "/>
<polyline clip-path="url(#clip932)" style="stroke:#000000; stroke-width:0.5; stroke-opacity:0.1; fill:none" points="
  23.685,295.954 388.189,295.954 
  "/>
<polyline clip-path="url(#clip932)" style="stroke:#000000; stroke-width:0.5; stroke-opacity:0.1; fill:none" points="
  23.685,219.891 388.189,219.891 
  "/>
<polyline clip-path="url(#clip932)" style="stroke:#000000; stroke-width:0.5; stroke-opacity:0.1; fill:none" points="
  23.685,143.828 388.189,143.828 
  "/>
<polyline clip-path="url(#clip932)" style="stroke:#000000; stroke-width:0.5; stroke-opacity:0.1; fill:none" points="
  23.685,67.765 388.189,67.765 
  "/>
<polyline clip-path="url(#clip930)" style="stroke:#000000; stroke-width:1; stroke-opacity:1; fill:none" points="
  23.685,376.315 23.685,11.811 
  "/>
<polyline clip-path="url(#clip930)" style="stroke:#000000; stroke-width:1; stroke-opacity:1; fill:none" points="
  23.685,372.017 28.0591,372.017 
  "/>
<polyline clip-path="url(#clip930)" style="stroke:#000000; stroke-width:1; stroke-opacity:1; fill:none" points="
  23.685,295.954 28.0591,295.954 
  "/>
<polyline clip-path="url(#clip930)" style="stroke:#000000; stroke-width:1; stroke-opacity:1; fill:none" points="
  23.685,219.891 28.0591,219.891 
  "/>
<polyline clip-path="url(#clip930)" style="stroke:#000000; stroke-width:1; stroke-opacity:1; fill:none" points="
  23.685,143.828 28.0591,143.828 
  "/>
<polyline clip-path="url(#clip930)" style="stroke:#000000; stroke-width:1; stroke-opacity:1; fill:none" points="
  23.685,67.765 28.0591,67.765 
  "/>
<path clip-path="url(#clip930)" d="M 0 0 M-2.68522 372.13 L4.73372 372.13 L4.73372 373.114 L-2.68522 373.114 L-2.68522 372.13 Z" fill="#000000" fill-rule="evenodd" fill-opacity="1" /><path clip-path="url(#clip930)" d="M 0 0 M6.20362 375.354 L8.11333 375.354 L8.11333 368.762 L6.0358 369.179 L6.0358 368.114 L8.10176 367.697 L9.27073 367.697 L9.27073 375.354 L11.1804 375.354 L11.1804 376.337 L6.20362 376.337 L6.20362 375.354 Z" fill="#000000" fill-rule="evenodd" fill-opacity="1" /><path clip-path="url(#clip930)" d="M 0 0 M12.4594 367.697 L17.0485 367.697 L17.0485 368.681 L13.53 368.681 L13.53 370.799 Q13.7846 370.712 14.0392 370.672 Q14.2939 370.626 14.5485 370.626 Q15.9952 370.626 16.8401 371.418 Q17.685 372.211 17.685 373.565 Q17.685 374.96 16.817 375.735 Q15.9489 376.505 14.3691 376.505 Q13.8251 376.505 13.258 376.413 Q12.6966 376.32 12.0948 376.135 L12.0948 374.96 Q12.6156 375.244 13.1712 375.382 Q13.7267 375.521 14.3459 375.521 Q15.3471 375.521 15.9316 374.995 Q16.5161 374.468 16.5161 373.565 Q16.5161 372.663 15.9316 372.136 Q15.3471 371.609 14.3459 371.609 Q13.8772 371.609 13.4084 371.714 Q12.9455 371.818 12.4594 372.038 L12.4594 367.697 Z" fill="#000000" fill-rule="evenodd" fill-opacity="1" /><path clip-path="url(#clip930)" d="M 0 0 M-2.93406 296.067 L4.48488 296.067 L4.48488 297.051 L-2.93406 297.051 L-2.93406 296.067 Z" fill="#000000" fill-rule="evenodd" fill-opacity="1" /><path clip-path="url(#clip930)" d="M 0 0 M5.95478 299.29 L7.86449 299.29 L7.86449 292.699 L5.78695 293.116 L5.78695 292.051 L7.85292 291.634 L9.02189 291.634 L9.02189 299.29 L10.9316 299.29 L10.9316 300.274 L5.95478 300.274 L5.95478 299.29 Z" fill="#000000" fill-rule="evenodd" fill-opacity="1" /><path clip-path="url(#clip930)" d="M 0 0 M14.6989 292.404 Q13.7962 292.404 13.339 293.295 Q12.8876 294.181 12.8876 295.963 Q12.8876 297.74 13.339 298.631 Q13.7962 299.516 14.6989 299.516 Q15.6075 299.516 16.0589 298.631 Q16.5161 297.74 16.5161 295.963 Q16.5161 294.181 16.0589 293.295 Q15.6075 292.404 14.6989 292.404 M14.6989 291.478 Q16.1515 291.478 16.9154 292.63 Q17.685 293.775 17.685 295.963 Q17.685 298.145 16.9154 299.296 Q16.1515 300.442 14.6989 300.442 Q13.2464 300.442 12.4767 299.296 Q11.7128 298.145 11.7128 295.963 Q11.7128 293.775 12.4767 292.63 Q13.2464 291.478 14.6989 291.478 Z" fill="#000000" fill-rule="evenodd" fill-opacity="1" /><path clip-path="url(#clip930)" d="M 0 0 M3.7615 220.004 L11.1804 220.004 L11.1804 220.988 L3.7615 220.988 L3.7615 220.004 Z" fill="#000000" fill-rule="evenodd" fill-opacity="1" /><path clip-path="url(#clip930)" d="M 0 0 M12.4594 215.571 L17.0485 215.571 L17.0485 216.555 L13.53 216.555 L13.53 218.673 Q13.7846 218.586 14.0392 218.546 Q14.2939 218.499 14.5485 218.499 Q15.9952 218.499 16.8401 219.292 Q17.685 220.085 17.685 221.439 Q17.685 222.834 16.817 223.609 Q15.9489 224.379 14.3691 224.379 Q13.8251 224.379 13.258 224.286 Q12.6966 224.194 12.0948 224.009 L12.0948 222.834 Q12.6156 223.117 13.1712 223.256 Q13.7267 223.395 14.3459 223.395 Q15.3471 223.395 15.9316 222.869 Q16.5161 222.342 16.5161 221.439 Q16.5161 220.536 15.9316 220.01 Q15.3471 219.483 14.3459 219.483 Q13.8772 219.483 13.4084 219.587 Q12.9455 219.692 12.4594 219.911 L12.4594 215.571 Z" fill="#000000" fill-rule="evenodd" fill-opacity="1" /><path clip-path="url(#clip930)" d="M 0 0 M14.6989 140.278 Q13.7962 140.278 13.339 141.169 Q12.8876 142.054 12.8876 143.837 Q12.8876 145.613 13.339 146.505 Q13.7962 147.39 14.6989 147.39 Q15.6075 147.39 16.0589 146.505 Q16.5161 145.613 16.5161 143.837 Q16.5161 142.054 16.0589 141.169 Q15.6075 140.278 14.6989 140.278 M14.6989 139.352 Q16.1515 139.352 16.9154 140.503 Q17.685 141.649 17.685 143.837 Q17.685 146.018 16.9154 147.17 Q16.1515 148.316 14.6989 148.316 Q13.2464 148.316 12.4767 147.17 Q11.7128 146.018 11.7128 143.837 Q11.7128 141.649 12.4767 140.503 Q13.2464 139.352 14.6989 139.352 Z" fill="#000000" fill-rule="evenodd" fill-opacity="1" /><path clip-path="url(#clip930)" d="M 0 0 M12.4594 63.445 L17.0485 63.445 L17.0485 64.4288 L13.53 64.4288 L13.53 66.5469 Q13.7846 66.46 14.0392 66.4195 Q14.2939 66.3732 14.5485 66.3732 Q15.9952 66.3732 16.8401 67.1661 Q17.685 67.9589 17.685 69.313 Q17.685 70.7077 16.817 71.4832 Q15.9489 72.2528 14.3691 72.2528 Q13.8251 72.2528 13.258 72.1602 Q12.6966 72.0677 12.0948 71.8825 L12.0948 70.7077 Q12.6156 70.9913 13.1712 71.1302 Q13.7267 71.2691 14.3459 71.2691 Q15.3471 71.2691 15.9316 70.7424 Q16.5161 70.2158 16.5161 69.313 Q16.5161 68.4103 15.9316 67.8837 Q15.3471 67.357 14.3459 67.357 Q13.8772 67.357 13.4084 67.4612 Q12.9455 67.5654 12.4594 67.7853 L12.4594 63.445 Z" fill="#000000" fill-rule="evenodd" fill-opacity="1" /><path clip-path="url(#clip930)" d="M 0 0 M-24.3781 219.16 L-24.3781 211.648 L-23.0254 211.648 L-23.0254 217.552 L-19.5083 217.552 L-19.5083 211.895 L-18.1556 211.895 L-18.1556 217.552 L-13.8508 217.552 L-13.8508 211.505 L-12.4981 211.505 L-12.4981 219.16 L-24.3781 219.16 Z" fill="#000000" fill-rule="evenodd" fill-opacity="1" /><path clip-path="url(#clip930)" d="M 0 0 M-17.8771 202.561 L-12.4981 202.561 L-12.4981 204.025 L-17.8293 204.025 Q-19.0945 204.025 -19.7231 204.519 Q-20.3518 205.012 -20.3518 205.999 Q-20.3518 207.184 -19.5958 207.869 Q-18.8399 208.553 -17.5349 208.553 L-12.4981 208.553 L-12.4981 210.025 L-21.4101 210.025 L-21.4101 208.553 L-20.0255 208.553 Q-20.8292 208.028 -21.227 207.32 Q-21.6249 206.603 -21.6249 205.672 Q-21.6249 204.137 -20.67 203.349 Q-19.7231 202.561 -17.8771 202.561 Z" fill="#000000" fill-rule="evenodd" fill-opacity="1" /><path clip-path="url(#clip930)" d="M 0 0 M-17.3201 193.403 L-16.6039 193.403 L-16.6039 200.134 Q-15.0921 200.039 -14.2964 199.227 Q-13.5086 198.408 -13.5086 196.951 Q-13.5086 196.108 -13.7155 195.32 Q-13.9224 194.525 -14.3362 193.745 L-12.9516 193.745 Q-12.6174 194.532 -12.4424 195.36 Q-12.2673 196.188 -12.2673 197.039 Q-12.2673 199.171 -13.5086 200.421 Q-14.7499 201.662 -16.8665 201.662 Q-19.0547 201.662 -20.3358 200.484 Q-21.6249 199.299 -21.6249 197.294 Q-21.6249 195.495 -20.4632 194.453 Q-19.3094 193.403 -17.3201 193.403 M-17.7498 194.867 Q-18.9513 194.883 -19.6674 195.543 Q-20.3836 196.196 -20.3836 197.278 Q-20.3836 198.503 -19.6913 199.243 Q-18.999 199.975 -17.7418 200.087 L-17.7498 194.867 Z" fill="#000000" fill-rule="evenodd" fill-opacity="1" /><path clip-path="url(#clip930)" d="M 0 0 M-20.0414 186.703 Q-20.1847 186.949 -20.2483 187.244 Q-20.3199 187.53 -20.3199 187.88 Q-20.3199 189.122 -19.5083 189.79 Q-18.7046 190.45 -17.1928 190.45 L-12.4981 190.45 L-12.4981 191.923 L-21.4101 191.923 L-21.4101 190.45 L-20.0255 190.45 Q-20.8371 189.989 -21.227 189.249 Q-21.6249 188.509 -21.6249 187.451 Q-21.6249 187.299 -21.601 187.116 Q-21.5851 186.933 -21.5453 186.711 L-20.0414 186.703 Z" fill="#000000" fill-rule="evenodd" fill-opacity="1" /><path clip-path="url(#clip930)" d="M 0 0 M-17.0575 179.589 Q-18.6489 179.589 -19.5242 180.249 Q-20.3995 180.902 -20.3995 182.088 Q-20.3995 183.265 -19.5242 183.926 Q-18.6489 184.578 -17.0575 184.578 Q-15.474 184.578 -14.5987 183.926 Q-13.7235 183.265 -13.7235 182.088 Q-13.7235 180.902 -14.5987 180.249 Q-15.474 179.589 -17.0575 179.589 M-13.6041 178.125 Q-11.3284 178.125 -10.2223 179.135 Q-9.10832 180.146 -9.10832 182.231 Q-9.10832 183.003 -9.22768 183.687 Q-9.33908 184.371 -9.5778 185.016 L-11.0021 185.016 Q-10.652 184.371 -10.4849 183.743 Q-10.3178 183.114 -10.3178 182.461 Q-10.3178 181.021 -11.0737 180.305 Q-11.8217 179.589 -13.3415 179.589 L-14.0656 179.589 Q-13.2779 180.043 -12.888 180.751 Q-12.4981 181.459 -12.4981 182.446 Q-12.4981 184.085 -13.7473 185.087 Q-14.9966 186.09 -17.0575 186.09 Q-19.1264 186.09 -20.3756 185.087 Q-21.6249 184.085 -21.6249 182.446 Q-21.6249 181.459 -21.235 180.751 Q-20.8451 180.043 -20.0573 179.589 L-21.4101 179.589 L-21.4101 178.125 L-13.6041 178.125 Z" fill="#000000" fill-rule="evenodd" fill-opacity="1" /><path clip-path="url(#clip930)" d="M 0 0 M-11.6705 172.881 Q-10.0791 173.502 -9.59371 174.091 Q-9.10832 174.679 -9.10832 175.666 L-9.10832 176.836 L-10.3337 176.836 L-10.3337 175.976 Q-10.3337 175.372 -10.6202 175.037 Q-10.9066 174.703 -11.9729 174.297 L-12.6413 174.035 L-21.4101 177.639 L-21.4101 176.088 L-14.4396 173.303 L-21.4101 170.518 L-21.4101 168.966 L-11.6705 172.881 Z" fill="#000000" fill-rule="evenodd" fill-opacity="1" /><line clip-path="url(#clip932)" x1="70.1354" y1="365.999" x2="50.1354" y2="365.999" style="stroke:#009af9; stroke-width:0.8; stroke-opacity:1"/>
<line clip-path="url(#clip932)" x1="70.1354" y1="334.194" x2="50.1354" y2="334.194" style="stroke:#009af9; stroke-width:0.8; stroke-opacity:1"/>
<line clip-path="url(#clip932)" x1="70.1354" y1="334.194" x2="50.1354" y2="334.194" style="stroke:#009af9; stroke-width:0.8; stroke-opacity:1"/>
<line clip-path="url(#clip932)" x1="70.1354" y1="334.194" x2="50.1354" y2="334.194" style="stroke:#009af9; stroke-width:0.8; stroke-opacity:1"/>
<line clip-path="url(#clip932)" x1="70.1354" y1="308.102" x2="50.1354" y2="308.102" style="stroke:#009af9; stroke-width:0.8; stroke-opacity:1"/>
<line clip-path="url(#clip932)" x1="70.1354" y1="293.443" x2="50.1354" y2="293.443" style="stroke:#009af9; stroke-width:0.8; stroke-opacity:1"/>
<line clip-path="url(#clip932)" x1="70.1354" y1="293.443" x2="50.1354" y2="293.443" style="stroke:#009af9; stroke-width:0.8; stroke-opacity:1"/>
<line clip-path="url(#clip932)" x1="70.1354" y1="293.443" x2="50.1354" y2="293.443" style="stroke:#009af9; stroke-width:0.8; stroke-opacity:1"/>
<line clip-path="url(#clip932)" x1="70.1354" y1="293.443" x2="50.1354" y2="293.443" style="stroke:#009af9; stroke-width:0.8; stroke-opacity:1"/>
<line clip-path="url(#clip932)" x1="70.1354" y1="293.443" x2="50.1354" y2="293.443" style="stroke:#009af9; stroke-width:0.8; stroke-opacity:1"/>
<line clip-path="url(#clip932)" x1="70.1354" y1="293.443" x2="50.1354" y2="293.443" style="stroke:#009af9; stroke-width:0.8; stroke-opacity:1"/>
<line clip-path="url(#clip932)" x1="70.1354" y1="274.361" x2="50.1354" y2="274.361" style="stroke:#009af9; stroke-width:0.8; stroke-opacity:1"/>
<line clip-path="url(#clip932)" x1="70.1354" y1="274.361" x2="50.1354" y2="274.361" style="stroke:#009af9; stroke-width:0.8; stroke-opacity:1"/>
<line clip-path="url(#clip932)" x1="70.1354" y1="274.361" x2="50.1354" y2="274.361" style="stroke:#009af9; stroke-width:0.8; stroke-opacity:1"/>
<line clip-path="url(#clip932)" x1="70.1354" y1="274.361" x2="50.1354" y2="274.361" style="stroke:#009af9; stroke-width:0.8; stroke-opacity:1"/>
<line clip-path="url(#clip932)" x1="70.1354" y1="274.361" x2="50.1354" y2="274.361" style="stroke:#009af9; stroke-width:0.8; stroke-opacity:1"/>
<line clip-path="url(#clip932)" x1="70.1354" y1="274.361" x2="50.1354" y2="274.361" style="stroke:#009af9; stroke-width:0.8; stroke-opacity:1"/>
<line clip-path="url(#clip932)" x1="70.1354" y1="256.684" x2="50.1354" y2="256.684" style="stroke:#009af9; stroke-width:0.8; stroke-opacity:1"/>
<line clip-path="url(#clip932)" x1="70.1354" y1="256.684" x2="50.1354" y2="256.684" style="stroke:#009af9; stroke-width:0.8; stroke-opacity:1"/>
<line clip-path="url(#clip932)" x1="70.1354" y1="256.684" x2="50.1354" y2="256.684" style="stroke:#009af9; stroke-width:0.8; stroke-opacity:1"/>
<line clip-path="url(#clip932)" x1="70.1354" y1="256.684" x2="50.1354" y2="256.684" style="stroke:#009af9; stroke-width:0.8; stroke-opacity:1"/>
<line clip-path="url(#clip932)" x1="70.1354" y1="256.684" x2="50.1354" y2="256.684" style="stroke:#009af9; stroke-width:0.8; stroke-opacity:1"/>
<line clip-path="url(#clip932)" x1="70.1354" y1="256.684" x2="50.1354" y2="256.684" style="stroke:#009af9; stroke-width:0.8; stroke-opacity:1"/>
<line clip-path="url(#clip932)" x1="70.1354" y1="253.477" x2="50.1354" y2="253.477" style="stroke:#009af9; stroke-width:0.8; stroke-opacity:1"/>
<line clip-path="url(#clip932)" x1="70.1354" y1="253.477" x2="50.1354" y2="253.477" style="stroke:#009af9; stroke-width:0.8; stroke-opacity:1"/>
<line clip-path="url(#clip932)" x1="70.1354" y1="253.477" x2="50.1354" y2="253.477" style="stroke:#009af9; stroke-width:0.8; stroke-opacity:1"/>
<line clip-path="url(#clip932)" x1="70.1354" y1="253.477" x2="50.1354" y2="253.477" style="stroke:#009af9; stroke-width:0.8; stroke-opacity:1"/>
<line clip-path="url(#clip932)" x1="70.1354" y1="253.477" x2="50.1354" y2="253.477" style="stroke:#009af9; stroke-width:0.8; stroke-opacity:1"/>
<line clip-path="url(#clip932)" x1="70.1354" y1="247.706" x2="50.1354" y2="247.706" style="stroke:#009af9; stroke-width:0.8; stroke-opacity:1"/>
<line clip-path="url(#clip932)" x1="70.1354" y1="247.706" x2="50.1354" y2="247.706" style="stroke:#009af9; stroke-width:0.8; stroke-opacity:1"/>
<line clip-path="url(#clip932)" x1="70.1354" y1="242.286" x2="50.1354" y2="242.286" style="stroke:#009af9; stroke-width:0.8; stroke-opacity:1"/>
<line clip-path="url(#clip932)" x1="70.1354" y1="242.286" x2="50.1354" y2="242.286" style="stroke:#009af9; stroke-width:0.8; stroke-opacity:1"/>
<line clip-path="url(#clip932)" x1="106.586" y1="365.999" x2="86.5858" y2="365.999" style="stroke:#e26f46; stroke-width:0.8; stroke-opacity:1"/>
<line clip-path="url(#clip932)" x1="106.586" y1="253.477" x2="86.5858" y2="253.477" style="stroke:#e26f46; stroke-width:0.8; stroke-opacity:1"/>
<line clip-path="url(#clip932)" x1="106.586" y1="204.679" x2="86.5858" y2="204.679" style="stroke:#e26f46; stroke-width:0.8; stroke-opacity:1"/>
<line clip-path="url(#clip932)" x1="106.586" y1="188.012" x2="86.5858" y2="188.012" style="stroke:#e26f46; stroke-width:0.8; stroke-opacity:1"/>
<line clip-path="url(#clip932)" x1="106.586" y1="170.909" x2="86.5858" y2="170.909" style="stroke:#e26f46; stroke-width:0.8; stroke-opacity:1"/>
<line clip-path="url(#clip932)" x1="106.586" y1="143.828" x2="86.5858" y2="143.828" style="stroke:#e26f46; stroke-width:0.8; stroke-opacity:1"/>
<line clip-path="url(#clip932)" x1="106.586" y1="143.828" x2="86.5858" y2="143.828" style="stroke:#e26f46; stroke-width:0.8; stroke-opacity:1"/>
<line clip-path="url(#clip932)" x1="106.586" y1="120.875" x2="86.5858" y2="120.875" style="stroke:#e26f46; stroke-width:0.8; stroke-opacity:1"/>
<line clip-path="url(#clip932)" x1="106.586" y1="67.9488" x2="86.5858" y2="67.9488" style="stroke:#e26f46; stroke-width:0.8; stroke-opacity:1"/>
<line clip-path="url(#clip932)" x1="106.586" y1="22.1272" x2="86.5858" y2="22.1272" style="stroke:#e26f46; stroke-width:0.8; stroke-opacity:1"/>
<line clip-path="url(#clip932)" x1="143.036" y1="293.443" x2="123.036" y2="293.443" style="stroke:#3da44d; stroke-width:0.8; stroke-opacity:1"/>
<line clip-path="url(#clip932)" x1="143.036" y1="213.448" x2="123.036" y2="213.448" style="stroke:#3da44d; stroke-width:0.8; stroke-opacity:1"/>
<line clip-path="url(#clip932)" x1="143.036" y1="182.065" x2="123.036" y2="182.065" style="stroke:#3da44d; stroke-width:0.8; stroke-opacity:1"/>
<line clip-path="url(#clip932)" x1="143.036" y1="175.025" x2="123.036" y2="175.025" style="stroke:#3da44d; stroke-width:0.8; stroke-opacity:1"/>
<line clip-path="url(#clip932)" x1="143.036" y1="161.651" x2="123.036" y2="161.651" style="stroke:#3da44d; stroke-width:0.8; stroke-opacity:1"/>
<line clip-path="url(#clip932)" x1="143.036" y1="117.235" x2="123.036" y2="117.235" style="stroke:#3da44d; stroke-width:0.8; stroke-opacity:1"/>
<line clip-path="url(#clip932)" x1="143.036" y1="89.5073" x2="123.036" y2="89.5073" style="stroke:#3da44d; stroke-width:0.8; stroke-opacity:1"/>
<line clip-path="url(#clip932)" x1="143.036" y1="39.9499" x2="123.036" y2="39.9499" style="stroke:#3da44d; stroke-width:0.8; stroke-opacity:1"/>
<line clip-path="url(#clip932)" x1="179.487" y1="256.684" x2="159.487" y2="256.684" style="stroke:#c271d2; stroke-width:0.8; stroke-opacity:1"/>
<line clip-path="url(#clip932)" x1="179.487" y1="242.286" x2="159.487" y2="242.286" style="stroke:#c271d2; stroke-width:0.8; stroke-opacity:1"/>
<line clip-path="url(#clip932)" x1="179.487" y1="220.928" x2="159.487" y2="220.928" style="stroke:#c271d2; stroke-width:0.8; stroke-opacity:1"/>
<line clip-path="url(#clip932)" x1="179.487" y1="180.154" x2="159.487" y2="180.154" style="stroke:#c271d2; stroke-width:0.8; stroke-opacity:1"/>
<line clip-path="url(#clip932)" x1="179.487" y1="159.567" x2="159.487" y2="159.567" style="stroke:#c271d2; stroke-width:0.8; stroke-opacity:1"/>
<line clip-path="url(#clip932)" x1="179.487" y1="116.348" x2="159.487" y2="116.348" style="stroke:#c271d2; stroke-width:0.8; stroke-opacity:1"/>
<line clip-path="url(#clip932)" x1="179.487" y1="106.22" x2="159.487" y2="106.22" style="stroke:#c271d2; stroke-width:0.8; stroke-opacity:1"/>
<line clip-path="url(#clip932)" x1="179.487" y1="82.9776" x2="159.487" y2="82.9776" style="stroke:#c271d2; stroke-width:0.8; stroke-opacity:1"/>
<line clip-path="url(#clip932)" x1="179.487" y1="50.9893" x2="159.487" y2="50.9893" style="stroke:#c271d2; stroke-width:0.8; stroke-opacity:1"/>
<line clip-path="url(#clip932)" x1="215.937" y1="274.361" x2="195.937" y2="274.361" style="stroke:#ac8d18; stroke-width:0.8; stroke-opacity:1"/>
<line clip-path="url(#clip932)" x1="215.937" y1="247.706" x2="195.937" y2="247.706" style="stroke:#ac8d18; stroke-width:0.8; stroke-opacity:1"/>
<line clip-path="url(#clip932)" x1="215.937" y1="196.094" x2="195.937" y2="196.094" style="stroke:#ac8d18; stroke-width:0.8; stroke-opacity:1"/>
<line clip-path="url(#clip932)" x1="215.937" y1="170.421" x2="195.937" y2="170.421" style="stroke:#ac8d18; stroke-width:0.8; stroke-opacity:1"/>
<line clip-path="url(#clip932)" x1="215.937" y1="127.675" x2="195.937" y2="127.675" style="stroke:#ac8d18; stroke-width:0.8; stroke-opacity:1"/>
<line clip-path="url(#clip932)" x1="215.937" y1="126.005" x2="195.937" y2="126.005" style="stroke:#ac8d18; stroke-width:0.8; stroke-opacity:1"/>
<line clip-path="url(#clip932)" x1="215.937" y1="74.2077" x2="195.937" y2="74.2077" style="stroke:#ac8d18; stroke-width:0.8; stroke-opacity:1"/>
<line clip-path="url(#clip932)" x1="215.937" y1="55.855" x2="195.937" y2="55.855" style="stroke:#ac8d18; stroke-width:0.8; stroke-opacity:1"/>
<line clip-path="url(#clip932)" x1="252.387" y1="334.194" x2="232.387" y2="334.194" style="stroke:#00a9ad; stroke-width:0.8; stroke-opacity:1"/>
<line clip-path="url(#clip932)" x1="252.387" y1="308.102" x2="232.387" y2="308.102" style="stroke:#00a9ad; stroke-width:0.8; stroke-opacity:1"/>
<line clip-path="url(#clip932)" x1="252.387" y1="216.948" x2="232.387" y2="216.948" style="stroke:#00a9ad; stroke-width:0.8; stroke-opacity:1"/>
<line clip-path="url(#clip932)" x1="252.387" y1="190.128" x2="232.387" y2="190.128" style="stroke:#00a9ad; stroke-width:0.8; stroke-opacity:1"/>
<line clip-path="url(#clip932)" x1="252.387" y1="143.828" x2="232.387" y2="143.828" style="stroke:#00a9ad; stroke-width:0.8; stroke-opacity:1"/>
<line clip-path="url(#clip932)" x1="252.387" y1="143.828" x2="232.387" y2="143.828" style="stroke:#00a9ad; stroke-width:0.8; stroke-opacity:1"/>
<line clip-path="url(#clip932)" x1="252.387" y1="143.828" x2="232.387" y2="143.828" style="stroke:#00a9ad; stroke-width:0.8; stroke-opacity:1"/>
<line clip-path="url(#clip932)" x1="252.387" y1="82.9776" x2="232.387" y2="82.9776" style="stroke:#00a9ad; stroke-width:0.8; stroke-opacity:1"/>
<line clip-path="url(#clip932)" x1="252.387" y1="62.8934" x2="232.387" y2="62.8934" style="stroke:#00a9ad; stroke-width:0.8; stroke-opacity:1"/>
<line clip-path="url(#clip932)" x1="252.387" y1="54.9557" x2="232.387" y2="54.9557" style="stroke:#00a9ad; stroke-width:0.8; stroke-opacity:1"/>
<line clip-path="url(#clip932)" x1="288.838" y1="274.361" x2="268.838" y2="274.361" style="stroke:#ed5d92; stroke-width:0.8; stroke-opacity:1"/>
<line clip-path="url(#clip932)" x1="288.838" y1="247.706" x2="268.838" y2="247.706" style="stroke:#ed5d92; stroke-width:0.8; stroke-opacity:1"/>
<line clip-path="url(#clip932)" x1="288.838" y1="196.094" x2="268.838" y2="196.094" style="stroke:#ed5d92; stroke-width:0.8; stroke-opacity:1"/>
<line clip-path="url(#clip932)" x1="288.838" y1="170.421" x2="268.838" y2="170.421" style="stroke:#ed5d92; stroke-width:0.8; stroke-opacity:1"/>
<line clip-path="url(#clip932)" x1="288.838" y1="127.675" x2="268.838" y2="127.675" style="stroke:#ed5d92; stroke-width:0.8; stroke-opacity:1"/>
<line clip-path="url(#clip932)" x1="288.838" y1="126.005" x2="268.838" y2="126.005" style="stroke:#ed5d92; stroke-width:0.8; stroke-opacity:1"/>
<line clip-path="url(#clip932)" x1="288.838" y1="74.2077" x2="268.838" y2="74.2077" style="stroke:#ed5d92; stroke-width:0.8; stroke-opacity:1"/>
<line clip-path="url(#clip932)" x1="288.838" y1="55.855" x2="268.838" y2="55.855" style="stroke:#ed5d92; stroke-width:0.8; stroke-opacity:1"/>
<line clip-path="url(#clip932)" x1="325.288" y1="256.684" x2="305.288" y2="256.684" style="stroke:#c68125; stroke-width:0.8; stroke-opacity:1"/>
<line clip-path="url(#clip932)" x1="325.288" y1="242.286" x2="305.288" y2="242.286" style="stroke:#c68125; stroke-width:0.8; stroke-opacity:1"/>
<line clip-path="url(#clip932)" x1="325.288" y1="220.928" x2="305.288" y2="220.928" style="stroke:#c68125; stroke-width:0.8; stroke-opacity:1"/>
<line clip-path="url(#clip932)" x1="325.288" y1="180.154" x2="305.288" y2="180.154" style="stroke:#c68125; stroke-width:0.8; stroke-opacity:1"/>
<line clip-path="url(#clip932)" x1="325.288" y1="159.567" x2="305.288" y2="159.567" style="stroke:#c68125; stroke-width:0.8; stroke-opacity:1"/>
<line clip-path="url(#clip932)" x1="325.288" y1="116.348" x2="305.288" y2="116.348" style="stroke:#c68125; stroke-width:0.8; stroke-opacity:1"/>
<line clip-path="url(#clip932)" x1="325.288" y1="106.22" x2="305.288" y2="106.22" style="stroke:#c68125; stroke-width:0.8; stroke-opacity:1"/>
<line clip-path="url(#clip932)" x1="325.288" y1="82.9776" x2="305.288" y2="82.9776" style="stroke:#c68125; stroke-width:0.8; stroke-opacity:1"/>
<line clip-path="url(#clip932)" x1="325.288" y1="50.9893" x2="305.288" y2="50.9893" style="stroke:#c68125; stroke-width:0.8; stroke-opacity:1"/>
<line clip-path="url(#clip932)" x1="361.739" y1="293.443" x2="341.739" y2="293.443" style="stroke:#00a98d; stroke-width:0.8; stroke-opacity:1"/>
<line clip-path="url(#clip932)" x1="361.739" y1="213.448" x2="341.739" y2="213.448" style="stroke:#00a98d; stroke-width:0.8; stroke-opacity:1"/>
<line clip-path="url(#clip932)" x1="361.739" y1="182.065" x2="341.739" y2="182.065" style="stroke:#00a98d; stroke-width:0.8; stroke-opacity:1"/>
<line clip-path="url(#clip932)" x1="361.739" y1="175.025" x2="341.739" y2="175.025" style="stroke:#00a98d; stroke-width:0.8; stroke-opacity:1"/>
<line clip-path="url(#clip932)" x1="361.739" y1="161.651" x2="341.739" y2="161.651" style="stroke:#00a98d; stroke-width:0.8; stroke-opacity:1"/>
<line clip-path="url(#clip932)" x1="361.739" y1="117.235" x2="341.739" y2="117.235" style="stroke:#00a98d; stroke-width:0.8; stroke-opacity:1"/>
<line clip-path="url(#clip932)" x1="361.739" y1="89.5073" x2="341.739" y2="89.5073" style="stroke:#00a98d; stroke-width:0.8; stroke-opacity:1"/>
<line clip-path="url(#clip932)" x1="361.739" y1="39.9499" x2="341.739" y2="39.9499" style="stroke:#00a98d; stroke-width:0.8; stroke-opacity:1"/>
</svg>
